<svg width="480" height="529" viewBox="0 0 480 529" fill="none" xmlns="http://www.w3.org/2000/svg">
    <path d="M402.201 239.872C423.721 297.918 383.568 409.169 355.678 474.402C343.168 503.661 309.518 516.137 280.958 502.103C217.285 470.817 114.314 412.628 92.7936 354.582C61.1526 269.236 104.766 174.371 190.206 142.695C275.647 111.019 370.56 154.527 402.201 239.872ZM132.872 339.723C146.974 377.759 210.842 422.797 259.507 452.652C289.994 471.356 328.782 456.975 339.709 422.918C357.15 368.555 376.224 292.767 362.122 254.731C338.679 191.496 268.354 159.259 205.049 182.729C141.743 206.199 109.429 276.488 132.872 339.723Z" fill="#CC0F31"/>
    <path fill-rule="evenodd" clip-rule="evenodd" d="M121.484 127.392L141.715 125.487C145.555 125.126 148.852 122.603 150.204 118.994L157.329 99.9756C158.913 95.7466 160.538 91.6052 162.164 87.601C164.332 82.2654 170.59 79.9454 175.712 82.5784C179.556 84.5549 183.488 86.637 187.447 88.8111L205.248 98.5892C208.627 100.445 212.771 100.208 215.919 97.9792L232.503 86.2343C241.812 79.6419 253.496 73.2706 265.4 67.5924C269.917 65.438 275.253 67.8837 276.561 72.7089C278.657 80.4415 280.457 88.1108 281.791 95.3613C282.979 101.811 289.667 105.932 295.823 103.65L316.762 95.8866C321.269 94.2158 323.985 89.5914 323.066 84.8788C317.745 57.6038 308.048 30.1752 302.919 16.6727C301.056 11.7712 295.707 9.32007 290.77 11.1053C274.72 16.9102 239.791 30.5434 213.148 48.0473C209.924 50.1652 205.799 50.4079 202.397 48.5942C182.474 37.9712 164.063 29.812 153.872 25.5015C149.162 23.5094 143.791 25.5007 141.518 30.0816C136.6 39.9936 127.959 58.1814 119.776 79.2237C118.378 82.8167 115.091 85.3219 111.267 85.8174C79.6534 89.9128 44.2822 102.343 28.3278 108.403C23.4207 110.267 20.9616 115.613 22.7448 120.544C27.6569 134.127 38.184 161.248 51.9288 185.4C54.3036 189.573 59.3779 191.309 63.885 189.638L84.8239 181.875C90.9801 179.593 93.3656 172.109 90.0615 166.443C86.3471 160.075 82.7122 153.086 79.261 145.856C77.1075 141.344 79.5599 136.011 84.3898 134.7C97.1164 131.246 110.129 128.461 121.484 127.392Z" fill="#25C758"/>
    <ellipse cx="201.829" cy="216.419" rx="10.5" ry="16" transform="rotate(-17.5185 201.829 216.419)" fill="#CC0F31"/>
    <ellipse cx="240.829" cy="232.419" rx="10.5" ry="16" transform="rotate(-17.5185 240.829 232.419)" fill="#CC0F31"/>
    <ellipse cx="221.829" cy="266.419" rx="10.5" ry="16" transform="rotate(-17.5185 221.829 266.419)" fill="#CC0F31"/>
    <ellipse cx="170.975" cy="247.502" rx="11" ry="16" transform="rotate(-17.5185 170.975 247.502)" fill="#CC0F31"/>
    <ellipse cx="154.306" cy="301.001" rx="11" ry="16" transform="rotate(-17.5185 154.306 301.001)" fill="#CC0F31"/>
    <ellipse cx="182.079" cy="354.104" rx="10.5" ry="16" transform="rotate(-17.5185 182.079 354.104)" fill="#CC0F31"/>
    <ellipse cx="197.829" cy="305.419" rx="10.5" ry="16" transform="rotate(-17.5185 197.829 305.419)" fill="#CC0F31"/>
    <ellipse cx="243.358" cy="358.88" rx="10.5" ry="16" transform="rotate(-17.5185 243.358 358.88)" fill="#CC0F31"/>
    <ellipse cx="240.306" cy="308.57" rx="11" ry="16" transform="rotate(-17.5185 240.306 308.57)" fill="#CC0F31"/>
    <ellipse cx="286.306" cy="323.57" rx="11" ry="16" transform="rotate(-17.5185 286.306 323.57)" fill="#CC0F31"/>
    <ellipse cx="281.306" cy="372.57" rx="11" ry="16" transform="rotate(-17.5185 281.306 372.57)" fill="#CC0F31"/>
    <ellipse cx="298.306" cy="420.57" rx="11" ry="16" transform="rotate(-17.5185 298.306 420.57)" fill="#CC0F31"/>
    <ellipse cx="214.923" cy="386.731" rx="11" ry="16" transform="rotate(-17.5185 214.923 386.731)" fill="#CC0F31"/>
    <ellipse cx="251.507" cy="412.934" rx="11" ry="16" transform="rotate(-17.5185 251.507 412.934)" fill="#CC0F31"/>
    <ellipse cx="277.306" cy="278.57" rx="11" ry="16" transform="rotate(-17.5185 277.306 278.57)" fill="#CC0F31"/>
    <ellipse cx="266.306" cy="202.57" rx="11" ry="16" transform="rotate(-17.5185 266.306 202.57)" fill="#CC0F31"/>
    <ellipse cx="298.306" cy="232.57" rx="11" ry="16" transform="rotate(-17.5185 298.306 232.57)" fill="#CC0F31"/>
    <ellipse cx="328.306" cy="282.57" rx="11" ry="16" transform="rotate(-17.5185 328.306 282.57)" fill="#CC0F31"/>
    <ellipse cx="328.306" cy="326.57" rx="11" ry="16" transform="rotate(-17.5185 328.306 326.57)" fill="#CC0F31"/>
    <ellipse cx="323.306" cy="374.57" rx="11" ry="16" transform="rotate(-17.5185 323.306 374.57)" fill="#CC0F31"/>
    <ellipse cx="333.306" cy="240.57" rx="11" ry="16" transform="rotate(-17.5185 333.306 240.57)" fill="#CC0F31"/>
</svg>
