<svg width="1421" height="1001" viewBox="0 0 1421 1001" fill="none" xmlns="http://www.w3.org/2000/svg">
    <g clip-path="url(#clip0_341_21)">
        <path fill-rule="evenodd" clip-rule="evenodd" d="M-376.997 -325.289C-394.124 -352.904 -434.302 -352.904 -451.43 -325.289C-462.69 -307.135 -485.406 -299.754 -505.187 -307.823C-535.274 -320.096 -567.779 -296.48 -565.404 -264.072C-563.843 -242.766 -577.882 -223.443 -598.628 -218.344C-630.183 -210.588 -642.599 -172.376 -621.629 -147.554C-607.842 -131.235 -607.842 -107.35 -621.629 -91.0305C-642.599 -66.2075 -630.183 -27.9965 -598.628 -20.2405C-577.882 -15.1415 -563.843 4.18251 -565.404 25.4886C-566.532 40.8888 -559.784 54.3036 -549.162 62.8253C-553.54 77.2649 -565.239 88.8744 -580.628 92.6564C-612.183 100.413 -624.599 138.624 -603.629 163.446C-589.842 179.765 -589.842 203.65 -603.629 219.969C-624.599 244.792 -612.183 283.003 -580.628 290.759C-559.882 295.858 -545.843 315.182 -547.404 336.488C-548.532 351.888 -541.784 365.303 -531.162 373.825C-535.54 388.264 -547.239 399.874 -562.628 403.656C-594.183 411.412 -606.599 449.624 -585.629 474.446C-571.842 490.765 -571.842 514.65 -585.629 530.969C-606.599 555.792 -594.183 594.003 -562.628 601.759C-541.882 606.858 -527.843 626.182 -529.404 647.488C-529.798 652.864 -529.232 657.998 -527.876 662.767C-533.079 667.427 -539.452 670.892 -546.628 672.656C-578.183 680.412 -590.599 718.624 -569.629 743.446C-555.842 759.765 -555.842 783.65 -569.629 799.969C-590.599 824.792 -578.183 863.003 -546.628 870.759C-525.882 875.858 -511.843 895.182 -513.404 916.488C-515.779 948.895 -483.274 972.511 -453.187 960.238C-433.406 952.169 -410.69 959.55 -399.43 977.705C-382.302 1005.32 -342.123 1005.32 -324.996 977.705C-317.442 965.526 -304.732 958.195 -291.212 957.125C-277.692 958.195 -264.983 965.526 -257.429 977.705C-240.301 1005.32 -200.124 1005.32 -182.996 977.705C-175.442 965.526 -162.733 958.195 -149.212 957.125C-135.692 958.195 -122.983 965.526 -115.429 977.705C-98.3007 1005.32 -58.1237 1005.32 -40.9967 977.705C-34.3117 966.927 -23.249 962.205 -11.5 960C3.971 959.303 18.8013 964.618 27.3573 978.413C44.4843 1006.03 84.6623 1006.03 101.79 978.413C109.344 966.234 122.053 958.903 135.573 957.833C149.094 958.903 161.803 966.234 169.357 978.413C186.484 1006.03 226.662 1006.03 243.79 978.413C251.344 966.234 264.053 958.903 277.573 957.833C291.094 958.903 303.803 966.234 311.357 978.413C328.484 1006.03 368.662 1006.03 385.79 978.413C392.475 967.635 403.197 960.654 414.946 958.449C430.417 957.751 445.587 965.326 454.144 979.12C471.271 1006.73 511.449 1006.73 528.576 979.12C536.13 966.941 548.84 959.611 562.36 958.541C575.88 959.611 588.59 966.941 596.144 979.12C613.271 1006.73 653.449 1006.73 670.576 979.12C678.13 966.941 690.84 959.611 704.36 958.541C717.88 959.611 730.59 966.941 738.14 979.12C755.27 1006.73 795.45 1006.73 812.58 979.12C819.26 968.342 829.98 961.362 841.73 959.157C857.2 958.459 872.37 966.033 880.93 979.828C898.06 1007.44 938.24 1007.44 955.36 979.828C962.92 967.649 975.63 960.319 989.15 959.249C1002.67 960.319 1015.38 967.649 1022.93 979.828C1040.06 1007.44 1080.24 1007.44 1097.36 979.828C1104.92 967.649 1117.63 960.319 1131.15 959.249C1144.67 960.319 1157.38 967.649 1164.93 979.828C1182.06 1007.44 1222.24 1007.44 1239.36 979.828C1246.05 969.05 1256.77 962.069 1268.52 959.864C1283.99 959.167 1299.16 966.741 1307.72 980.536C1324.84 1008.15 1365.02 1008.15 1382.15 980.536C1389.7 968.357 1402.41 961.027 1415.93 959.956C1429.45 961.027 1442.16 968.357 1449.72 980.536C1466.84 1008.15 1507.02 1008.15 1524.15 980.536C1531.7 968.357 1544.41 961.027 1557.93 959.956C1571.45 961.027 1584.16 968.357 1591.72 980.536C1608.84 1008.15 1649.02 1008.15 1666.15 980.536C1677.41 962.381 1700.13 955 1719.91 963.069C1749.99 975.342 1782.5 951.726 1780.12 919.319C1778.56 898.013 1792.6 878.689 1813.35 873.59C1844.9 865.834 1857.32 827.623 1836.35 802.801C1822.56 786.481 1822.56 762.596 1836.35 746.277C1857.32 721.455 1844.9 683.243 1813.35 675.487C1792.6 670.388 1778.56 651.065 1780.12 629.759C1780.52 624.383 1779.95 619.249 1778.59 614.48C1783.8 609.819 1790.17 606.354 1797.35 604.59C1828.9 596.834 1841.32 558.623 1820.35 533.801C1806.56 517.481 1806.56 493.596 1820.35 477.277C1841.32 452.455 1828.9 414.243 1797.35 406.487C1776.6 401.388 1762.56 382.065 1764.12 360.759C1765.25 345.358 1758.5 331.942 1747.88 323.42C1752.26 308.981 1763.96 297.372 1779.35 293.59C1810.9 285.834 1823.32 247.623 1802.35 222.801C1788.56 206.481 1788.56 182.596 1802.35 166.277C1823.32 141.455 1810.9 103.243 1779.35 95.4875C1758.6 90.3885 1744.56 71.0655 1746.12 49.7593C1747.25 34.358 1740.5 20.9425 1729.88 12.4208C1734.26 -2.01828 1745.96 -13.6272 1761.35 -17.4095C1792.9 -25.1655 1805.32 -63.3765 1784.35 -88.1985C1770.56 -104.519 1770.56 -128.404 1784.35 -144.723C1805.32 -169.545 1792.9 -207.757 1761.35 -215.513C1740.6 -220.612 1726.56 -239.935 1728.12 -261.241C1730.5 -293.649 1697.99 -317.265 1667.91 -304.992C1648.13 -296.923 1625.41 -304.304 1614.15 -322.458C1597.02 -350.072 1556.84 -350.072 1539.72 -322.458C1532.16 -310.279 1519.45 -302.949 1505.93 -301.879C1492.41 -302.949 1479.7 -310.279 1472.15 -322.458C1455.02 -350.072 1414.84 -350.072 1397.72 -322.458C1390.16 -310.279 1377.45 -302.949 1363.93 -301.879C1350.41 -302.949 1337.7 -310.279 1330.15 -322.458C1313.02 -350.072 1272.84 -350.072 1255.72 -322.458C1249.03 -311.681 1238.31 -304.7 1226.56 -302.495C1211.09 -301.797 1195.92 -309.371 1187.36 -323.166C1170.24 -350.78 1130.06 -350.78 1112.93 -323.166C1105.38 -310.987 1092.67 -303.657 1079.15 -302.587C1065.63 -303.657 1052.92 -310.987 1045.36 -323.166C1028.24 -350.78 988.06 -350.78 970.93 -323.166C963.38 -310.987 950.67 -303.657 937.15 -302.587C923.63 -303.657 910.92 -310.987 903.36 -323.166C886.24 -350.78 846.06 -350.78 828.93 -323.166C822.25 -312.388 811.52 -305.408 799.77 -303.202C784.3 -302.505 769.13 -310.079 760.58 -323.874C743.45 -351.488 703.27 -351.488 686.14 -323.874C678.59 -311.695 665.88 -304.365 652.36 -303.294C638.84 -304.365 626.13 -311.695 618.576 -323.874C601.449 -351.488 561.271 -351.488 544.144 -323.874C536.59 -311.695 523.88 -304.365 510.36 -303.294C496.84 -304.365 484.13 -311.695 476.576 -323.874C459.449 -351.488 419.271 -351.488 402.144 -323.874C395.459 -313.096 384.736 -306.115 372.987 -303.91C357.516 -303.213 342.346 -310.787 333.79 -324.582C316.662 -352.196 276.484 -352.196 259.357 -324.582C251.803 -312.403 239.094 -305.072 225.573 -304.002C212.053 -305.072 199.344 -312.403 191.79 -324.582C174.662 -352.196 134.484 -352.196 117.357 -324.582C109.803 -312.403 97.0943 -305.072 83.5733 -304.002C70.0533 -305.072 57.3443 -312.403 49.7903 -324.582C32.6623 -352.196 -7.5157 -352.196 -24.6427 -324.582C-31.3277 -313.804 -42.0507 -306.823 -53.7987 -304.618C-69.2697 -303.92 -84.4407 -311.495 -92.9967 -325.289C-110.123 -352.904 -150.301 -352.904 -167.429 -325.289C-174.983 -313.111 -187.692 -305.78 -201.212 -304.71C-214.733 -305.78 -227.442 -313.111 -234.996 -325.289C-252.124 -352.904 -292.301 -352.904 -309.428 -325.289C-316.982 -313.111 -329.692 -305.78 -343.212 -304.71C-356.732 -305.78 -369.443 -313.111 -376.997 -325.289Z" fill="#FFB412"/>
    </g>
    <defs>
        <clipPath id="clip0_341_21">
            <rect width="1421" height="1001" fill="white"/>
        </clipPath>
    </defs>
</svg>
